Coordinates
version=1
nRows=11
nColumns=36
inDegrees=yes

Units are S.I. units (second, meters, Newtons, ...)
If the header above contains a line with 'inDegrees', this indicates whether rotational values are in degrees (yes) or radians (no).

endheader
time	pelvis_tilt	pelvis_list	pelvis_rotation	pelvis_tx	pelvis_ty	pelvis_tz	hip_flexion_r	hip_adduction_r	hip_rotation_r	knee_angle_r	knee_angle_r_beta	ankle_angle_r	subtalar_angle_r	mtp_angle_r	hip_flexion_l	hip_adduction_l	hip_rotation_l	knee_angle_l	knee_angle_l_beta	ankle_angle_l	subtalar_angle_l	mtp_angle_l	lumbar_extension	lumbar_bending	lumbar_rotation	arm_flex_r	arm_add_r	arm_rot_r	elbow_flex_r	pro_sup_r	arm_flex_l	arm_add_l	arm_rot_l	elbow_flex_l	pro_sup_l
      0.00000000	      0.55506644	     -2.16997088	      0.57098692	     -1.08413881	      1.39553672	     -0.05601576	     -0.04935870	      3.79467823	      4.52872813	     10.06564525	      0.17567865	      6.14500446	     -8.79939818	     -5.78473904	     -0.20168910	     -2.03415442	      1.74433024	      7.61629185	      0.13292937	     10.93736294	     -2.64942095	     -5.78473904	     -9.02775824	      2.34813583	     -0.19598657	      2.04235516	     -5.24515413	      6.00061137	     30.73108445	     82.42382698	      2.37464864	     -2.71206322	      7.63100707	     31.64859283	     78.48969674
      0.00416670	     -2.30374001	     -1.32470358	      0.45072279	     -1.08253304	      1.39161862	     -0.05665095	      3.67244981	      2.82068893	      4.85727911	     11.24163466	      0.19620354	      9.22187474	     -5.65447937	     -6.01687328	      3.61038868	     -0.46425906	      2.74626329	      8.66303363	      0.15119846	      9.79249404	     -2.78550460	     -6.01687328	     -5.02288197	      1.63270785	     -0.25004822	      0.76444006	     -4.81232465	      3.87147140	     30.67650570	     80.40756000	      1.68796768	     -2.24216305	      4.99099824	     30.81040213	     76.63379074
      0.00833330	     -3.18691834	     -0.45029741	      0.11894946	     -1.08275923	      1.39160072	     -0.05597430	      4.17528177	      1.74500067	      4.11592890	     10.20720696	      0.17814937	      9.42691001	     -4.31395827	     -6.17174287	      4.33299626	      0.44100561	      2.13105285	      8.42975395	      0.14712696	      9.09242601	     -2.59074672	     -6.17174287	     -3.62822054	      0.49267284	     -0.06495124	      0.46030079	     -4.38093329	      3.03420479	     30.79202297	     79.49767966	      1.22151684	     -2.85174624	      5.36553214	     30.60384174	     76.14000074
      0.01250000	     -2.94912718	     -0.09751509	     -0.26582270	     -1.08441128	      1.39070059	     -0.05378968	      3.89138910	      1.38180828	      3.80269518	      9.82874980	      0.17154405	      9.83581042	     -3.05760206	     -6.68977911	      3.65218770	      0.84225234	      2.12741711	      7.85236925	      0.13704970	      8.55445880	     -3.13384063	     -6.68977911	     -4.03740915	     -0.06772036	      0.78746732	      0.11039922	     -4.11745247	      1.26224731	     31.49409827	     84.42365573	      1.40502948	     -3.66143970	      6.90542895	     30.34542946	     81.73190127
      0.01666670	     -2.70377640	      0.03494098	     -0.38548691	     -1.08012053	      1.39434341	     -0.05556350	      3.19430733	      1.21868803	      3.62088187	      9.13393148	      0.15941718	      9.64249212	     -2.41540136	     -6.70336453	      2.92118461	      1.03150590	      2.17340849	      7.15517399	      0.12488134	      8.10317660	     -3.37278013	     -6.70336453	     -4.10064046	     -0.20563954	      1.04830498	     -0.11708667	     -4.12570698	      1.76325648	     31.47001427	     84.53625371	      1.15661761	     -3.81954538	      7.38482192	     29.93471213	     81.93444525
      0.02083330	     -2.73915606	      0.12764617	     -0.47784185	     -1.08447651	      1.39431742	     -0.05326880	      3.28495900	      1.21712822	      3.71019195	      8.91253904	      0.15555315	      9.62996111	     -2.27739754	     -6.70429090	      3.01020576	      1.11851328	      2.16338157	      7.12669066	      0.12438422	      8.06746095	     -3.43010331	     -6.70429090	     -4.25753566	     -0.37633272	      1.17990019	     -0.00559009	     -3.97717760	      1.84751703	     31.53811283	     84.55079512	      1.14744805	     -4.02776920	      7.38802959	     29.85019336	     81.94857883
      0.02500000	     -2.27084381	      0.19086890	     -0.53076082	     -1.08437602	      1.39587795	     -0.05372994	      2.52008758	      1.15180528	      3.74905391	      8.22364298	      0.14352965	      9.33969089	     -1.59947906	     -6.76979518	      2.35926418	      1.21206737	      2.44407147	      6.70289518	      0.11698759	      7.29411456	     -4.05187830	     -6.76979518	     -4.83748191	     -0.60537440	      1.45206322	      0.11647594	     -4.19036090	      3.35556453	     31.54866220	     83.65146453	      1.74184701	     -4.12837757	      8.24595512	     29.03235303	     81.36373852
      0.02916670	     -2.28900940	      0.22845482	     -0.51779177	     -1.08720545	      1.39123108	     -0.05278395	      2.55537762	      1.13697582	      3.75581395	      8.03691696	      0.14027066	      9.27660719	     -1.48690592	     -6.92550403	      2.62148969	      1.28061153	      2.66315826	      6.94734008	      0.12125396	      7.20848515	     -4.40315485	     -6.92550403	     -5.02622150	     -0.70267830	      1.41294988	      0.25299524	     -4.45924397	      5.14090689	     31.69442737	     83.19506706	      2.12488708	     -4.29482708	      9.06877168	     28.90614339	     81.98870590
      0.03333330	     -2.25786769	      0.25025989	     -0.55434633	     -1.08692448	      1.39299482	     -0.05276559	      2.49635692	      1.10851704	      3.69337302	      7.77818999	      0.13575503	      9.18373043	     -1.35809612	     -7.01976915	      2.77505743	      1.29372320	      2.73175889	      7.17440871	      0.12521705	      7.23126317	     -4.35537078	     -7.01976915	     -5.19766196	     -0.78882915	      1.41619096	      0.34348672	     -4.42679060	      5.49947879	     31.71857377	     81.12810560	      2.36466649	     -4.20090318	      8.92074747	     28.63042153	     80.08886995
      0.03750000	     -2.26950918	      0.20438049	     -0.52115466	     -1.08685061	      1.39203438	     -0.05329404	      2.43350121	      1.12683289	      3.81353334	      7.54496662	      0.13168451	      9.05721455	     -1.40414018	     -7.05876463	      2.89364414	      1.25185831	      2.85867691	      7.28740187	      0.12718916	      7.32617304	     -4.44473672	     -7.05876463	     -5.29120178	     -0.70353087	      1.35103708	      0.35747451	     -4.52727933	      5.98642445	     31.77045670	     80.71650489	      2.50276094	     -4.21075111	      8.94744398	     28.43496904	     79.74082470
      0.04166670	     -2.15757227	      0.17077699	     -0.47401051	     -1.08530238	      1.39334916	     -0.05190720	      2.16447571	      1.18610582	      3.93447254	      7.21932037	      0.12600091	      8.83159023	     -1.60661223	     -7.07059447	      2.78580894	      1.18191936	      3.00247326	      7.37271338	      0.12867812	      7.30671459	     -4.49066408	     -7.07059447	     -5.47301302	     -0.68119385	      1.29434815	      0.28694059	     -4.51551080	      6.30772890	     31.88153953	     80.28458361	      2.51151844	     -4.25703518	      8.93131895	     28.31248923	     79.33808974
